<svg width="1280" height="640" viewBox="0 0 1280 640" fill="none" xmlns="http://www.w3.org/2000/svg">
  <defs>
    <linearGradient id="bg" x1="84" y1="52" x2="1186" y2="588" gradientUnits="userSpaceOnUse">
      <stop stop-color="#EDF7FF"/>
      <stop offset="0.48" stop-color="#FFF7F0"/>
      <stop offset="1" stop-color="#F3FFF7"/>
    </linearGradient>
    <linearGradient id="navyCard" x1="734" y1="156" x2="1098" y2="500" gradientUnits="userSpaceOnUse">
      <stop stop-color="#1A3154"/>
      <stop offset="1" stop-color="#10233B"/>
    </linearGradient>
    <linearGradient id="glass" x1="120" y1="94" x2="1160" y2="560" gradientUnits="userSpaceOnUse">
      <stop stop-color="#FFFFFF" stop-opacity="0.98"/>
      <stop offset="1" stop-color="#FCFDFF" stop-opacity="0.94"/>
    </linearGradient>
    <filter id="shadow" x="62" y="58" width="1156" height="548" filterUnits="userSpaceOnUse" color-interpolation-filters="sRGB">
      <feFlood flood-opacity="0" result="BackgroundImageFix"/>
      <feColorMatrix in="SourceAlpha" type="matrix" values="0 0 0 0 0 0 0 0 0 0 0 0 0 0 0 0 0 0 127 0" result="hardAlpha"/>
      <feOffset dy="18"/>
      <feGaussianBlur stdDeviation="24"/>
      <feColorMatrix type="matrix" values="0 0 0 0 0.0901961 0 0 0 0 0.145098 0 0 0 0 0.203922 0 0 0 0.12 0"/>
      <feBlend mode="normal" in2="BackgroundImageFix" result="effect1_dropShadow_1_1"/>
      <feBlend mode="normal" in="SourceGraphic" in2="effect1_dropShadow_1_1" result="shape"/>
    </filter>
  </defs>

  <rect width="1280" height="640" rx="32" fill="url(#bg)"/>
  <circle cx="124" cy="126" r="86" fill="#D7EDFF"/>
  <circle cx="1160" cy="520" r="112" fill="#FFE5CC"/>
  <circle cx="1084" cy="130" r="48" fill="#DEF5E6"/>

  <g filter="url(#shadow)">
    <rect x="110" y="88" width="1060" height="470" rx="30" fill="url(#glass)"/>
    <rect x="110" y="88" width="1060" height="470" rx="30" stroke="#DBE8F3"/>

    <rect x="110" y="88" width="1060" height="44" rx="30" fill="#F8FBFF"/>
    <rect x="110" y="117" width="1060" height="1" fill="#E4EDF6"/>
    <circle cx="142" cy="108" r="5.5" fill="#FF6C5F"/>
    <circle cx="162" cy="108" r="5.5" fill="#FFBE2E"/>
    <circle cx="182" cy="108" r="5.5" fill="#27C93F"/>
    <rect x="212" y="99" width="188" height="18" rx="9" fill="#EAF1F8"/>

    <rect x="152" y="166" width="88" height="12" rx="6" fill="#B9CBDC"/>
    <text x="152" y="228" fill="#13253D" font-family="Inter, Arial, sans-serif" font-size="54" font-weight="800">StoryForge</text>
    <text x="152" y="272" fill="#44576D" font-family="Inter, Arial, sans-serif" font-size="24" font-weight="500">Agentic fiction-to-video workflow for modern narrative production</text>
    <text x="152" y="320" fill="#6B7D8F" font-family="Inter, Arial, sans-serif" font-size="21" font-weight="500">From story brief to novel, character art, scene frames, and video clips.</text>
    <text x="152" y="352" fill="#6B7D8F" font-family="Inter, Arial, sans-serif" font-size="21" font-weight="500">Structured outputs. Staged execution. Reviewable media assets.</text>

    <rect x="152" y="388" width="170" height="48" rx="17" fill="#0E766E"/>
    <rect x="338" y="388" width="162" height="48" rx="17" fill="#FFFFFF" stroke="#D4E0EB"/>
    <text x="196" y="418" fill="#FFFFFF" font-family="Inter, Arial, sans-serif" font-size="18" font-weight="700">FastAPI + Queue</text>
    <text x="377" y="418" fill="#203244" font-family="Inter, Arial, sans-serif" font-size="18" font-weight="700">LangChain + Media</text>

    <rect x="152" y="464" width="114" height="12" rx="6" fill="#C6D4E2"/>
    <rect x="152" y="490" width="210" height="12" rx="6" fill="#D8E3EC"/>
    <rect x="152" y="516" width="174" height="12" rx="6" fill="#D8E3EC"/>

    <rect x="730" y="156" width="398" height="334" rx="30" fill="url(#navyCard)"/>
    <rect x="730" y="156" width="398" height="334" rx="30" stroke="#223B63"/>

    <rect x="766" y="190" width="120" height="12" rx="6" fill="#6886AB"/>
    <rect x="766" y="220" width="218" height="12" rx="6" fill="#8CA4C2"/>

    <rect x="766" y="270" width="84" height="128" rx="22" fill="#EFF5FB"/>
    <rect x="867" y="270" width="84" height="128" rx="22" fill="#FFF2E3"/>
    <rect x="968" y="270" width="84" height="128" rx="22" fill="#F0FAF2"/>
    <rect x="1069" y="270" width="23" height="128" rx="11.5" fill="#EDE8FF"/>

    <rect x="784" y="294" width="48" height="8" rx="4" fill="#9CB4CA"/>
    <rect x="885" y="294" width="48" height="8" rx="4" fill="#C3A98F"/>
    <rect x="986" y="294" width="48" height="8" rx="4" fill="#8FB79D"/>

    <rect x="784" y="318" width="52" height="52" rx="16" fill="#D9E8F7"/>
    <rect x="885" y="318" width="52" height="52" rx="16" fill="#F7E4D0"/>
    <rect x="986" y="318" width="52" height="52" rx="16" fill="#D9EFE0"/>

    <rect x="766" y="428" width="326" height="28" rx="14" fill="#1C375B"/>
    <rect x="786" y="437" width="74" height="10" rx="5" fill="#6D8CB2"/>
    <rect x="874" y="437" width="116" height="10" rx="5" fill="#91A9C5"/>

    <text x="152" y="584" fill="#4E6279" font-family="Inter, Arial, sans-serif" font-size="18" font-weight="500">DeepSeek · Seedream 4.5 · Seedance 2.0 · Story generation to video pipeline</text>
  </g>
</svg>
