<svg width="1600" height="920" viewBox="0 0 1600 920" fill="none" xmlns="http://www.w3.org/2000/svg">
  <defs>
    <linearGradient id="bg" x1="140" y1="64" x2="1460" y2="856" gradientUnits="userSpaceOnUse">
      <stop stop-color="#EEF7FF"/>
      <stop offset="0.52" stop-color="#FFF7EF"/>
      <stop offset="1" stop-color="#F2FFF7"/>
    </linearGradient>
    <linearGradient id="hero" x1="340" y1="164" x2="1240" y2="730" gradientUnits="userSpaceOnUse">
      <stop stop-color="#FFFFFF" stop-opacity="0.98"/>
      <stop offset="1" stop-color="#F9FBFF" stop-opacity="0.96"/>
    </linearGradient>
    <linearGradient id="accent" x1="938" y1="214" x2="1314" y2="564" gradientUnits="userSpaceOnUse">
      <stop stop-color="#1B3152"/>
      <stop offset="1" stop-color="#10233D"/>
    </linearGradient>
    <filter id="shadow" x="220" y="96" width="1160" height="730" filterUnits="userSpaceOnUse" color-interpolation-filters="sRGB">
      <feFlood flood-opacity="0" result="BackgroundImageFix"/>
      <feColorMatrix in="SourceAlpha" type="matrix" values="0 0 0 0 0 0 0 0 0 0 0 0 0 0 0 0 0 0 127 0" result="hardAlpha"/>
      <feOffset dy="22"/>
      <feGaussianBlur stdDeviation="30"/>
      <feColorMatrix type="matrix" values="0 0 0 0 0.0980392 0 0 0 0 0.141176 0 0 0 0 0.2 0 0 0 0.12 0"/>
      <feBlend mode="normal" in2="BackgroundImageFix" result="effect1_dropShadow_1_1"/>
      <feBlend mode="normal" in="SourceGraphic" in2="effect1_dropShadow_1_1" result="shape"/>
    </filter>
  </defs>
  <rect width="1600" height="920" rx="32" fill="url(#bg)"/>
  <circle cx="166" cy="146" r="110" fill="#D7ECFF"/>
  <circle cx="1444" cy="756" r="146" fill="#FFE3C8"/>
  <circle cx="1356" cy="170" r="62" fill="#DCF6E5"/>
  <g filter="url(#shadow)">
    <rect x="260" y="124" width="1080" height="650" rx="30" fill="url(#hero)"/>
    <rect x="260" y="124" width="1080" height="650" rx="30" stroke="#D9E6F2"/>
    <rect x="260" y="124" width="1080" height="48" rx="30" fill="#F8FBFF"/>
    <rect x="260" y="156" width="1080" height="1" fill="#E4EDF6"/>
    <circle cx="294" cy="148" r="6" fill="#FF6C5F"/>
    <circle cx="316" cy="148" r="6" fill="#FFBE2E"/>
    <circle cx="338" cy="148" r="6" fill="#27C93F"/>
    <rect x="370" y="138" width="226" height="20" rx="10" fill="#EAF1F8"/>
    <rect x="300" y="214" width="94" height="12" rx="6" fill="#BFD1E1"/>
    <rect x="300" y="248" width="488" height="78" rx="24" fill="#12243B"/>
    <rect x="300" y="350" width="400" height="16" rx="8" fill="#889CAF"/>
    <rect x="300" y="382" width="344" height="16" rx="8" fill="#C3D2E0"/>
    <rect x="300" y="434" width="176" height="52" rx="18" fill="#0E766E"/>
    <rect x="492" y="434" width="170" height="52" rx="18" fill="#FFFFFF" stroke="#CDD9E5"/>
    <rect x="300" y="544" width="162" height="108" rx="24" fill="#F4F9FF" stroke="#D9E6F2"/>
    <rect x="486" y="544" width="162" height="108" rx="24" fill="#FFF5EA" stroke="#F0DECB"/>
    <rect x="672" y="544" width="162" height="108" rx="24" fill="#F2FBF5" stroke="#D7EBDD"/>
    <rect x="330" y="574" width="52" height="52" rx="16" fill="#D9E9F8"/>
    <rect x="516" y="574" width="52" height="52" rx="16" fill="#F7E4D0"/>
    <rect x="702" y="574" width="52" height="52" rx="16" fill="#D7F0DF"/>
    <rect x="402" y="582" width="34" height="10" rx="5" fill="#9DB3C8"/>
    <rect x="588" y="582" width="34" height="10" rx="5" fill="#C2A98D"/>
    <rect x="774" y="582" width="34" height="10" rx="5" fill="#89B59A"/>
    <rect x="402" y="604" width="42" height="10" rx="5" fill="#CBD7E4"/>
    <rect x="588" y="604" width="44" height="10" rx="5" fill="#E5D5C5"/>
    <rect x="774" y="604" width="40" height="10" rx="5" fill="#C7E2D1"/>
    <rect x="902" y="212" width="392" height="494" rx="30" fill="url(#accent)"/>
    <rect x="902" y="212" width="392" height="494" rx="30" stroke="#223B62"/>
    <rect x="940" y="250" width="132" height="14" rx="7" fill="#54739D"/>
    <rect x="940" y="284" width="246" height="14" rx="7" fill="#7A93B4"/>
    <rect x="940" y="336" width="316" height="182" rx="26" fill="#F9FBFF"/>
    <rect x="968" y="364" width="122" height="98" rx="18" fill="#EAF2FA"/>
    <rect x="1108" y="364" width="120" height="98" rx="18" fill="#FCEEDF"/>
    <rect x="968" y="482" width="260" height="12" rx="6" fill="#CBD8E5"/>
    <rect x="940" y="554" width="316" height="112" rx="26" fill="#173055"/>
    <rect x="970" y="588" width="74" height="10" rx="5" fill="#6889B2"/>
    <rect x="1060" y="588" width="110" height="10" rx="5" fill="#88A2C2"/>
    <rect x="970" y="620" width="42" height="22" rx="11" fill="#0E766E"/>
    <rect x="1018" y="612" width="12" height="30" rx="6" fill="#2B4A75"/>
    <rect x="1038" y="600" width="12" height="42" rx="6" fill="#3A6495"/>
    <rect x="1058" y="578" width="12" height="64" rx="6" fill="#5C85B3"/>
    <rect x="1078" y="590" width="12" height="52" rx="6" fill="#84A4C7"/>
    <rect x="1098" y="562" width="12" height="80" rx="6" fill="#C7D4E2"/>
    <rect x="300" y="700" width="260" height="10" rx="5" fill="#C7D4E0"/>
    <rect x="300" y="724" width="420" height="10" rx="5" fill="#DCE6EF"/>
    <text x="300" y="516" fill="#15263B" font-family="Inter, Arial, sans-serif" font-size="40" font-weight="700">StoryForge Showcase Mockup</text>
    <text x="300" y="748" fill="#607387" font-family="Inter, Arial, sans-serif" font-size="22">Replace with your real homepage capture when the public UI is finalized.</text>
  </g>
</svg>
